# xmcd
#
# Track frame offsets:
#	150
#	32497
#	55867
#	75820
#	88307
#	123242
#	192897
#	228057
#
# Disc length: 3502 seconds
#
# Revision: 1
# Processed by: cddbd v1.5.2PL0 Copyright (c) Steve Scherf et al.
# Submitted via: EZCDAudioConverter 7.0.9.1
#
DISCID=510dac08
DTITLE=Fleetwood Mac - Men of the World: The Early Years [CD3)
DYEAR=2005
DGENRE=Blues
TTITLE0=Black Magic Woman
TTITLE1=Jumping at Shadows
TTITLE2=Stranger Blues
TTITLE3=Oh Well
TTITLE4=Coming Your Way
TTITLE5=The Green Manalishi (With the Two‐Pronged Crown)
TTITLE6=Rattlesnake Shake
TTITLE7=Twist and Shout
EXTD=
EXTT0=
EXTT1=
EXTT2=
EXTT3=
EXTT4=
EXTT5=
EXTT6=
EXTT7=
PLAYORDER=
